<svg xmlns="http://www.w3.org/2000/svg" viewBox="0 0 79.904 79.904">
  <defs>
    <style>
      .cls-1 {
        opacity: 0.3;
      }

      .cls-2 {
        fill: none;
        stroke: #fff;
        stroke-linecap: round;
        stroke-linejoin: round;
        stroke-miterlimit: 10;
        stroke-width: 6px;
      }
    </style>
  </defs>
  <g id="event-icon" class="cls-1" transform="translate(3 3)">
    <path id="Path_76" data-name="Path 76" class="cls-2" d="M45,177v67.185s0,6.719,6.719,6.719H118.9" transform="translate(-45 -177)"/>
    <path id="Path_77" data-name="Path 77" class="cls-2" d="M49,226.446V191.5a3.3,3.3,0,0,1,3.5-3.5H62.98a3.3,3.3,0,0,1,3.5,3.5v34.951" transform="translate(-35.723 -152.542)"/>
    <path id="Path_78" data-name="Path 78" class="cls-2" d="M54,216.446V181.5c0-2.1,1.215-3.5,3.038-3.5h9.114c1.823,0,3.038,1.4,3.038,3.5v34.951" transform="translate(-23.247 -174.505)"/>
    <path id="Path_79" data-name="Path 79" class="cls-2" d="M59,236.426V187.5a3.3,3.3,0,0,1,3.5-3.5H72.98a3.3,3.3,0,0,1,3.5,3.5v48.931" transform="translate(-13.057 -162.523)"/>
  </g>
</svg>
